<?xml version="1.0" encoding="UTF-8" standalone="no"?>
<!-- Created with Inkscape (http://www.inkscape.org/) -->

<svg
   id="svg4793"
   sodipodi:docname="notfound.svg"
   viewBox="0 0 202.31 399.92"
   version="1.1"
   inkscape:version="1.1 (c68e22c387, 2021-05-23)"
   xmlns:inkscape="http://www.inkscape.org/namespaces/inkscape"
   xmlns:sodipodi="http://sodipodi.sourceforge.net/DTD/sodipodi-0.dtd"
   xmlns="http://www.w3.org/2000/svg"
   xmlns:svg="http://www.w3.org/2000/svg"
   xmlns:rdf="http://www.w3.org/1999/02/22-rdf-syntax-ns#"
   xmlns:cc="http://creativecommons.org/ns#"
   xmlns:dc="http://purl.org/dc/elements/1.1/">
  <defs
     id="defs4795">
    <rect
       x="14.767"
       y="41.561"
       width="114.065"
       height="162.7079"
       id="rect8403" />
    <filter
       id="filter5441"
       inkscape:collect="always"
       color-interpolation-filters="sRGB"
       x="-0.022711775"
       y="-0.025404599"
       width="1.0454235"
       height="1.0508092">
      <feGaussianBlur
         id="feGaussianBlur5443"
         stdDeviation="1.4750031"
         inkscape:collect="always" />
    </filter>
    <filter
       id="filter6119"
       height="1.2011472"
       width="1.3168974"
       color-interpolation-filters="sRGB"
       y="-0.096202852"
       x="-0.1495185"
       inkscape:collect="always">
      <feGaussianBlur
         id="feGaussianBlur6121"
         stdDeviation="1.3931695"
         inkscape:collect="always" />
    </filter>
    <filter
       id="filter6133"
       height="1.1480072"
       width="1.7212822"
       color-interpolation-filters="sRGB"
       y="-0.075043162"
       x="-0.35915866"
       inkscape:collect="always">
      <feGaussianBlur
         id="feGaussianBlur6135"
         stdDeviation="3.0158023"
         inkscape:collect="always" />
    </filter>
    <filter
       id="filter6153"
       height="1.4768144"
       width="1.2853231"
       color-interpolation-filters="sRGB"
       y="-0.23840722"
       x="-0.14266155"
       inkscape:collect="always">
      <feGaussianBlur
         id="feGaussianBlur6155"
         stdDeviation="1.1858"
         inkscape:collect="always" />
    </filter>
    <linearGradient
       id="linearGradient6260"
       y2="521.21"
       gradientUnits="userSpaceOnUse"
       x2="392.35"
       y1="522.24"
       x1="312.76"
       inkscape:collect="always">
      <stop
         id="stop5321"
         style="stop-color:#151521"
         offset="0" />
      <stop
         id="stop5327"
         style="stop-color:#535361"
         offset=".49651" />
      <stop
         id="stop5323"
         style="stop-color:#151521"
         offset="1" />
    </linearGradient>
    <linearGradient
       id="linearGradient6262"
       y2="445.4"
       gradientUnits="userSpaceOnUse"
       x2="465.46"
       y1="421.68"
       x1="323.01"
       inkscape:collect="always">
      <stop
         id="stop5374"
         style="stop-color:#141427"
         offset="0" />
      <stop
         id="stop5376"
         style="stop-color:#16142a;stop-opacity:0"
         offset="1" />
    </linearGradient>
    <linearGradient
       id="linearGradient6264"
       y2="445.4"
       gradientUnits="userSpaceOnUse"
       x2="465.46"
       gradientTransform="matrix(.96590 0 0 .96590 13.12 15.187)"
       y1="445.4"
       x1="304.1"
       inkscape:collect="always">
      <stop
         id="stop5423"
         style="stop-color:#b0b7b6"
         offset="0" />
      <stop
         id="stop5425"
         style="stop-color:#b9bdc1;stop-opacity:0"
         offset="1" />
    </linearGradient>
    <linearGradient
       id="linearGradient6266"
       y2="342.77"
       gradientUnits="userSpaceOnUse"
       x2="394.99"
       gradientTransform="matrix(.95444 0 0 1.0646 16.92 .11532)"
       y1="342.77"
       x1="326.76"
       inkscape:collect="always">
      <stop
         id="stop5770"
         style="stop-color:#151521"
         offset="0" />
      <stop
         id="stop5772"
         style="stop-color:#3d3d44"
         offset=".47139" />
      <stop
         id="stop5774"
         style="stop-color:#151521"
         offset="1" />
    </linearGradient>
    <radialGradient
       id="radialGradient6268"
       gradientUnits="userSpaceOnUse"
       cy="168.83"
       cx="378.7"
       gradientTransform="matrix(1 0 0 .18276 0 137.98)"
       r="85.266"
       inkscape:collect="always">
      <stop
         id="stop5808"
         style="stop-color:#000000"
         offset="0" />
      <stop
         id="stop5810"
         style="stop-color:#ffffff;stop-opacity:0"
         offset="1" />
    </radialGradient>
    <linearGradient
       id="linearGradient6270"
       y2="365.37"
       gradientUnits="userSpaceOnUse"
       x2="418.43"
       y1="367.68"
       x1="444.38"
       inkscape:collect="always">
      <stop
         id="stop6125"
         style="stop-color:#ffffff"
         offset="0" />
      <stop
         id="stop6127"
         style="stop-color:#ffffff;stop-opacity:0"
         offset="1" />
    </linearGradient>
  </defs>
  <sodipodi:namedview
     id="base"
     bordercolor="#666666"
     inkscape:pageshadow="2"
     inkscape:window-y="40"
     pagecolor="#ffffff"
     inkscape:window-height="1015"
     inkscape:window-maximized="1"
     inkscape:zoom="1.5252989"
     inkscape:window-x="1366"
     showgrid="false"
     borderopacity="1.0"
     inkscape:current-layer="g6191"
     inkscape:cx="100.63601"
     inkscape:cy="200.28861"
     inkscape:window-width="1920"
     inkscape:pageopacity="0.0"
     inkscape:document-units="px"
     inkscape:pagecheckerboard="0" />
  <g
     id="layer1"
     inkscape:label="Layer 1"
     inkscape:groupmode="layer"
     transform="translate(-303.48 -139.84)">
    <g
       id="g6191">
      <path
         id="path5755"
         sodipodi:nodetypes="ccccccc"
         style="stroke:#000000;stroke-width:1px;fill:#eeeeee"
         d="m345.69 351.34-18.25-29.53-19.5-159.71c52.294 11.171 105.26 13.913 159.57 0l-18.286 160.95-23.866 28.906c-30.81 6.7702-52.849 9.848-79.666-0.61993z" />
      <path
         id="rect6026"
         sodipodi:nodetypes="ccccc"
         style="color:#000000;fill:#000000"
         d="m308.06 158.89 159.36 0.20591-1.445 12.355c-57.254 13.661-112.29 11.804-156.47-1.4414l-1.445-11.119z" />
      <path
         id="path5731-6"
         sodipodi:nodetypes="ccccc"
         style="stroke:#000000;stroke-width:1px;fill:#000000"
         d="m460.47 518.33-1.2593 11.963c-2.6584 2.599-5.3169 1.8515-7.9754 0l-2.9383-6.2963 12.173-5.6667z" />
      <path
         id="path5731"
         sodipodi:nodetypes="ccccc"
         style="stroke:#000000;stroke-width:1px;fill:#000000"
         d="m311.25 520.11 1.2593 11.963c2.6584 2.599 5.3169 1.8515 7.9754 0l2.9383-6.2963-12.173-5.6667z" />
      <path
         id="rect5316"
         sodipodi:nodetypes="ccccccc"
         style="color:#000000;fill:url(#linearGradient6260)"
         d="m314.07 480.64h141.28c5.8673 0 10.591 4.7635 10.591 10.681v17.117c-10.366 43.492-156.1 39.997-162.47 0v-17.117c0-5.917 4.7235-10.681 10.591-10.681z" />
      <path
         id="rect4803"
         sodipodi:nodetypes="ccccccc"
         style="color:#000000;fill:#373741"
         d="m345.33 373.42c25.601 7.6816 51.651 10.434 78.899 0 4.9626 0 9.847-1.6574 17.211 6.2068 25.103 40.922 24.019 107.72 24.019 107.72-16.218 40.468-148.7 40.062-161.36 0 0 0 6.4808-88.803 24.706-107.03 5.1663-5.3146 11.561-6.8946 16.523-6.8946z" />
      <path
         id="rect4803-0"
         sodipodi:nodetypes="ccccccc"
         style="color:#000000;fill:url(#linearGradient6262)"
         d="m345.33 373.42c25.601 7.6816 51.651 10.434 78.899 0 4.9626 0 9.847-1.6574 17.211 6.2068 25.103 40.922 24.019 107.72 24.019 107.72-16.218 40.468-148.7 40.062-161.36 0 0 0 6.4808-88.803 24.706-107.03 5.1663-5.3146 11.561-6.8946 16.523-6.8946z" />
      <path
         id="rect4803-3"
         d="m346.67 375.87c24.729 7.4197 49.89 10.078 76.209 0 4.7934 0 9.5113-1.6009 16.624 5.9952 24.247 39.526 23.2 104.04 23.2 104.04-15.665 39.088-143.63 38.696-155.86 0 0 0 6.2598-85.775 23.864-103.38 4.9902-5.1334 11.166-6.6595 15.96-6.6595z"
         sodipodi:nodetypes="ccccccc"
         style="opacity:0.245;color:#000000;filter:url(#filter5441);fill:url(#linearGradient6264)"
         transform="matrix(.90292 0 0 .99693 31.445 4.2906)" />
      <path
         id="path5445"
         d="m341.47 388.33c-1.9207-0.329-4.173-0.99924-5.8459 0-1.453 0.86786-2.3815 2.7782-2.4072 4.4704-0.0233 1.5377 1.0064 3.0094 2.0633 4.1265 1.2702 1.3427 2.9868 2.4744 4.8143 2.751 2.0898 0.31635 4.2123-0.62945 6.1898-1.3755 2.448-0.92354 6.7314-1.1704 6.8776-3.7827 0.13329-2.3815-3.7269-3.0315-5.8459-4.1265-1.8358-0.9487-3.8091-1.7144-5.8459-2.0633z"
         sodipodi:nodetypes="ccccccccc"
         style="opacity:0.73;filter:url(#filter6153);fill:#ffffff"
         transform="matrix(.35569 0 0 .38189 216.15 240.73)" />
      <rect
         id="rect5467"
         style="color:#000000;fill:#ff3f3f"
         ry="6.8776"
         height="24.415"
         width="13.755"
         y="455.73"
         x="335.63" />
      <rect
         id="rect5467-4"
         style="color:#000000;fill:#eaeaea"
         ry="6.8776"
         height="24.415"
         width="13.755"
         y="457.73"
         x="355.63" />
      <rect
         id="rect5467-4-8"
         style="color:#000000;fill:#eaeaea"
         ry="6.8776"
         height="24.415"
         width="13.755"
         y="459.73"
         x="375.63" />
      <rect
         id="rect5467-4-6"
         style="color:#000000;fill:#eaeaea"
         ry="6.8776"
         height="24.415"
         width="13.755"
         y="459.73"
         x="395.63" />
      <rect
         id="rect5467-4-6-7"
         style="color:#000000;fill:#eaeaea"
         ry="6.8776"
         height="24.415"
         width="13.755"
         y="457.73"
         x="415.63" />
      <g
         id="text5553"
         style="fill:#ffffff">
        <path
           id="path3146"
           style="fill:#ffffff"
           d="m361.88 487.14-1.4648 0.83984-0.12207-0.8789 1.6846-1.0352h0.83007v6.3965h1.5381v0.83007h-4.0039v-0.83007h1.5381v-5.3223" />
      </g>
      <g
         id="text5553-3"
         style="fill:#ffffff">
        <path
           id="path3143"
           style="fill:#ffffff"
           d="m384.12 495.26h-4.6875v-0.83007c0.22136-0.15951 0.45736-0.34343 0.70801-0.55176 0.25391-0.21159 0.50456-0.43783 0.75195-0.67871 0.25065-0.24089 0.48991-0.49154 0.71778-0.75196 0.23111-0.26367 0.43457-0.52734 0.61035-0.79101s0.31575-0.52246 0.41992-0.77637c0.10742-0.25716 0.16113-0.49804 0.16113-0.72266 0-0.22785-0.0407-0.42154-0.12207-0.58105-0.0781-0.16275-0.18229-0.29459-0.3125-0.39551-0.13021-0.10416-0.27832-0.17903-0.44433-0.22461-0.16602-0.0456-0.33692-0.0684-0.5127-0.0684-0.14974 0.00001-0.30436 0.0228-0.46386 0.0684-0.15951 0.0423-0.31576 0.10418-0.46875 0.18555-0.14975 0.0814-0.2946 0.17741-0.43457 0.28809-0.13672 0.11068-0.25879 0.23112-0.36622 0.36132l-0.21972-0.83007c0.0976-0.13672 0.22461-0.26204 0.38086-0.37598 0.15625-0.11718 0.32877-0.21809 0.51758-0.30274 0.19205-0.0879 0.39225-0.15461 0.60058-0.20019 0.21159-0.0488 0.41992-0.0732 0.625-0.0732 0.29297 0 0.57129 0.0488 0.83496 0.14648 0.26693 0.0944 0.5013 0.23113 0.70313 0.41016 0.20182 0.17579 0.36132 0.39063 0.47851 0.64453 0.12044 0.25066 0.18066 0.53386 0.18067 0.84961-0.00001 0.27344-0.0505 0.55176-0.15137 0.83496-0.0977 0.27995-0.2295 0.55827-0.39551 0.83496-0.16602 0.27344-0.35482 0.54037-0.5664 0.80078-0.2116 0.26042-0.4297 0.50782-0.6543 0.74219-0.22461 0.23438-0.44597 0.45247-0.66406 0.6543-0.2181 0.19856-0.41667 0.37435-0.59571 0.52734h1.2451 0.68359c0.21484-0.003 0.41178-0.007 0.59082-0.01 0.18229-0.007 0.34505-0.0146 0.48829-0.0244 0.14322-0.01 0.26366-0.0228 0.36132-0.0391v0.8789" />
      </g>
      <g
         id="text5553-3-2"
         style="fill:#ffffff">
        <path
           id="path3140"
           style="fill:#ffffff"
           d="m401.97 495.4c-0.4362 0-0.83497-0.0732-1.1963-0.21973-0.36133-0.14973-0.67058-0.34505-0.92774-0.58593l0.12207-1.0498c0.13347 0.14974 0.27669 0.28646 0.42969 0.41016 0.15299 0.1237 0.31575 0.22949 0.48828 0.31738 0.17578 0.0879 0.36133 0.15625 0.55664 0.20508 0.19531 0.0456 0.40365 0.0684 0.625 0.0684 0.18555 0 0.37435-0.0277 0.56641-0.083 0.19205-0.0553 0.36458-0.13834 0.51758-0.24902 0.15624-0.11393 0.2832-0.25391 0.38086-0.41992 0.0977-0.16927 0.14648-0.36621 0.14648-0.59082 0-0.19857-0.0521-0.37923-0.15625-0.542-0.10091-0.16601-0.24252-0.30761-0.4248-0.4248-0.1823-0.12044-0.39714-0.21321-0.64454-0.27832-0.24739-0.0651-0.51432-0.0976-0.80078-0.0977h-0.34179v-0.83008h0.34179c0.24414 0.00001 0.47526-0.0342 0.69336-0.10254 0.2181-0.0684 0.40853-0.15787 0.57129-0.26855 0.16601-0.11067 0.29785-0.23763 0.39551-0.38086 0.0976-0.14322 0.14648-0.29134 0.14648-0.44434 0-0.16601-0.0391-0.30761-0.11718-0.4248-0.0749-0.12044-0.17416-0.21972-0.29785-0.29785-0.12045-0.0781-0.25717-0.13509-0.41016-0.1709-0.14974-0.0391-0.29786-0.0586-0.44434-0.0586-0.1888 0-0.36458 0.013-0.52734 0.0391-0.16276 0.026-0.31739 0.0684-0.46387 0.12695-0.14648 0.0586-0.28971 0.13673-0.42969 0.23438-0.13672 0.0977-0.27343 0.21647-0.41015 0.35644l-0.1709-0.83008c0.0976-0.11067 0.21647-0.21321 0.35645-0.30761 0.13997-0.0976 0.29296-0.18066 0.45898-0.24903 0.16927-0.0716 0.34993-0.12694 0.54199-0.16601 0.19206-0.0391 0.39062-0.0586 0.5957-0.0586 0.30274 0.00001 0.58919 0.0391 0.85938 0.11719 0.27343 0.0781 0.51269 0.19044 0.71777 0.33692 0.20508 0.14323 0.36784 0.31901 0.48828 0.52734 0.12044 0.20834 0.18066 0.44271 0.18067 0.70312-0.00001 0.22462-0.0488 0.43132-0.14649 0.62012-0.0977 0.18555-0.22298 0.34994-0.37597 0.49317-0.14975 0.14323-0.31739 0.26204-0.50293 0.35644-0.18555 0.0911-0.36459 0.15463-0.53711 0.19043 0.11393 0.0195 0.23762 0.0505 0.37109 0.0928 0.13672 0.0423 0.27181 0.0993 0.40528 0.1709 0.13345 0.0684 0.26204 0.153 0.38574 0.25391 0.12369 0.10091 0.23274 0.21973 0.32715 0.35644 0.0977 0.13673 0.17414 0.29298 0.22949 0.46875 0.0586 0.17253 0.0879 0.36784 0.0879 0.58594-0.00001 0.28646-0.0732 0.55827-0.21973 0.81543-0.14323 0.25391-0.33692 0.47689-0.58105 0.66895-0.24415 0.1888-0.52735 0.33854-0.84961 0.44922-0.32227 0.11067-0.65918 0.16601-1.0107 0.16601" />
      </g>
      <g
         id="text5553-3-2-0"
         style="fill:#ffffff">
        <path
           id="path3137"
           style="fill:#ffffff"
           d="m421.27 491.22h2.3535v-3.3203l-2.3535 3.3203m3.2812 0.75684v1.9287h-0.92774v-1.9287h-3.1982v-0.75684l3.1982-4.541h0.92774v4.541h0.92773v0.75684h-0.92773" />
      </g>
      <g
         id="text5553-3-2-1"
         style="fill:#ffffff">
        <path
           id="path3130"
           style="fill:#ffffff"
           d="m338.07 487.66c0 0.22657 0.0274 0.42969 0.082 0.60938 0.0547 0.17969 0.1315 0.33203 0.23046 0.45703 0.10157 0.1224 0.22136 0.21615 0.35938 0.28125s0.29166 0.0977 0.46094 0.0977c0.15624 0 0.30338-0.0326 0.4414-0.0977s0.25781-0.15885 0.35938-0.28125c0.10416-0.125 0.18489-0.27734 0.24219-0.45703 0.0599-0.17969 0.0898-0.38281 0.0898-0.60938 0-0.22916-0.0274-0.43359-0.082-0.61328-0.0547-0.18229-0.13282-0.33593-0.23438-0.46094-0.099-0.1276-0.21875-0.22395-0.35937-0.28906-0.13803-0.0677-0.29037-0.10156-0.45703-0.10156-0.15886 0-0.3073 0.0339-0.44532 0.10156-0.13802 0.0651-0.25781 0.16146-0.35937 0.28906-0.10156 0.12501-0.18229 0.27865-0.24219 0.46094-0.0573 0.17969-0.0859 0.38412-0.0859 0.61328m-0.72265 0c0-0.33593 0.0508-0.63281 0.15234-0.89062 0.10156-0.26042 0.23828-0.47917 0.41016-0.65625 0.17187-0.17969 0.37239-0.3151 0.60156-0.40625 0.22917-0.0911 0.47265-0.13672 0.73047-0.13672 0.26823 0 0.51302 0.0456 0.73437 0.13672 0.22396 0.0912 0.41537 0.22656 0.57422 0.40625 0.16146 0.17708 0.28646 0.39583 0.375 0.65625 0.0885 0.25781 0.13281 0.55469 0.13282 0.89062-0.00001 0.33594-0.0508 0.63282-0.15235 0.89063-0.10156 0.25781-0.23828 0.47396-0.41015 0.64844-0.17188 0.17447-0.3724 0.30729-0.60157 0.39843-0.22917 0.0885-0.47266 0.13282-0.73047 0.13282-0.26823 0-0.51432-0.0443-0.73828-0.13282-0.22135-0.0911-0.41276-0.22396-0.57422-0.39843-0.15885-0.17448-0.28255-0.39063-0.37109-0.64844-0.0885-0.25781-0.13281-0.55469-0.13281-0.89063" />
        <path
           id="path3132"
           style="fill:#ffffff"
           d="m341.58 485.75h0.78125v-0.68359c0-0.58594 0.11849-1.0247 0.35547-1.3164 0.23958-0.29426 0.57031-0.4414 0.99219-0.44141 0.15364 0.00001 0.30468 0.0247 0.45312 0.0742 0.14844 0.0469 0.28385 0.11329 0.40625 0.19922l-0.17969 0.58594c-0.099-0.0729-0.20833-0.1302-0.32812-0.17188-0.1198-0.0417-0.23698-0.0625-0.35156-0.0625-0.10157 0.00001-0.19141 0.0182-0.26954 0.0547-0.0781 0.0339-0.14323 0.0899-0.19531 0.16797-0.0521 0.0781-0.0924 0.17969-0.12109 0.30469-0.026 0.1224-0.0391 0.27214-0.0391 0.44922v0.83984h1.0547v0.56641h-1.0547v1.3906c-0.00001 0.19011 0.001 0.37891 0.004 0.56641 0.005 0.1849 0.0117 0.36198 0.0195 0.53125 0.0104 0.16667 0.0234 0.32161 0.0391 0.46484 0.0156 0.14323 0.0339 0.26563 0.0547 0.36719h-0.83984v-3.3203h-0.78125v-0.56641" />
        <path
           id="path3134"
           style="fill:#ffffff"
           d="m344.52 485.75h0.78125v-0.68359c0-0.58594 0.11849-1.0247 0.35547-1.3164 0.23958-0.29426 0.57031-0.4414 0.99219-0.44141 0.15364 0.00001 0.30468 0.0247 0.45312 0.0742 0.14844 0.0469 0.28385 0.11329 0.40625 0.19922l-0.17969 0.58594c-0.099-0.0729-0.20833-0.1302-0.32812-0.17188-0.1198-0.0417-0.23698-0.0625-0.35156-0.0625-0.10157 0.00001-0.19141 0.0182-0.26954 0.0547-0.0781 0.0339-0.14323 0.0899-0.19531 0.16797-0.0521 0.0781-0.0924 0.17969-0.12109 0.30469-0.026 0.1224-0.0391 0.27214-0.0391 0.44922v0.83984h1.0547v0.56641h-1.0547v1.3906c-0.00001 0.19011 0.001 0.37891 0.004 0.56641 0.005 0.1849 0.0117 0.36198 0.0195 0.53125 0.0104 0.16667 0.0234 0.32161 0.0391 0.46484 0.0156 0.14323 0.0339 0.26563 0.0547 0.36719h-0.83984v-3.3203h-0.78125v-0.56641" />
      </g>
      <rect
         id="rect5467-6"
         style="color:#000000;stroke:#000000;stroke-width:.5;fill:none"
         ry="3.5912"
         height="12.749"
         width="7.1825"
         y="461.57"
         x="338.91" />
      <rect
         id="rect5467-4-1"
         style="color:#000000;stroke:#424242;stroke-width:.5;fill:#eaeaea"
         ry="3.5912"
         height="12.749"
         width="7.1825"
         y="463.57"
         x="358.91" />
      <rect
         id="rect5467-4-1-6"
         style="color:#000000;stroke:#424242;stroke-width:.5;fill:#eaeaea"
         ry="3.5912"
         height="12.749"
         width="7.1825"
         y="465.57"
         x="378.91" />
      <rect
         id="rect5467-4-1-9"
         style="color:#000000;stroke:#424242;stroke-width:.5;fill:#eaeaea"
         ry="3.5912"
         height="12.749"
         width="7.1825"
         y="465.57"
         x="398.91" />
      <rect
         id="rect5467-4-1-8"
         style="color:#000000;stroke:#424242;stroke-width:.5;fill:#eaeaea"
         ry="3.5912"
         height="12.749"
         width="7.1825"
         y="463.57"
         x="418.91" />
      <path
         id="path5782-3"
         sodipodi:rx="85.265755"
         sodipodi:ry="15.583052"
         style="color:#000000;stroke:#424242;stroke-width:.48154;fill:#0d0d0d"
         sodipodi:type="arc"
         d="m463.96 168.83c0 8.6063-38.175 15.583-85.266 15.583s-85.266-6.9768-85.266-15.583c0-8.6063 38.175-15.583 85.266-15.583s85.266 6.9768 85.266 15.583z"
         transform="matrix(.97586 0 0 1.185 17.668 -41.376)"
         sodipodi:cy="168.83258"
         sodipodi:cx="378.69754" />
      <path
         id="rect5757"
         sodipodi:nodetypes="ccccc"
         style="color:#000000;fill:url(#linearGradient6266)"
         d="m339.76 342.78c31.929 9.1569 60.623 12.87 92.552 1.3289 1.8723 1.7086 9.3614 26.546 9.7018 34.519-39.461 16.802-77.46 15.391-112.98-1.1391-0.1702-6.4547 7.9997-32.811 10.723-34.709z" />
      <path
         id="path5776"
         sodipodi:nodetypes="ccc"
         style="stroke:#000000;stroke-width:1px;fill:none"
         d="m359.15 345.01-6.2-21.7-7.2-137.34" />
      <path
         id="path5778"
         sodipodi:nodetypes="ccc"
         style="stroke:#000000;stroke-width:1px;fill:none"
         d="m409.44 345.01 11.779-21.698 11.046-135.62" />
      <path
         id="path5780"
         sodipodi:nodetypes="ccc"
         style="stroke:#000000;stroke-width:1px;fill:none"
         d="m384.37 345.23 1.2361-23.157 4.3396-133.29" />
      <path
         id="path5782"
         sodipodi:rx="85.265755"
         sodipodi:ry="15.583052"
         style="color:#000000;stroke:#424242;stroke-width:.5;fill:#1a1b1d"
         sodipodi:type="arc"
         d="m463.96 168.83c0 8.6063-38.175 15.583-85.266 15.583s-85.266-6.9768-85.266-15.583c0-8.6063 38.175-15.583 85.266-15.583s85.266 6.9768 85.266 15.583z"
         transform="matrix(.97586 0 0 1 17.668 -12.349)"
         sodipodi:cy="168.83258"
         sodipodi:cx="378.69754" />
      <path
         id="path5782-9"
         sodipodi:rx="85.265755"
         sodipodi:ry="15.583052"
         style="color:#000000;fill:url(#radialGradient6268)"
         sodipodi:type="arc"
         d="m463.96 168.83c0 8.6063-38.175 15.583-85.266 15.583s-85.266-6.9768-85.266-15.583c0-8.6063 38.175-15.583 85.266-15.583s85.266 6.9768 85.266 15.583z"
         transform="matrix(.79174 0 0 .81132 87.395 15.506)"
         sodipodi:cy="168.83258"
         sodipodi:cx="378.69754" />
      <path
         id="rect5838"
         style="color:#000000;fill:#eae9e8"
         d="m362.26 146.76h49.461v3.7953h-49.461v-3.7953zm49.364 0.0765c0 3.0853-11.058 5.5864-24.698 5.5864s-24.698-2.5011-24.698-5.5864 11.058-5.5864 24.698-5.5864 24.698 2.5011 24.698 5.5864zm0 4c0 3.0853-11.058 5.5864-24.698 5.5864s-24.698-2.5011-24.698-5.5864 11.058-5.5864 24.698-5.5864 24.698 2.5011 24.698 5.5864z" />
      <path
         id="path5844"
         sodipodi:nodetypes="cc"
         style="stroke:#000000;stroke-width:0.3;fill:none"
         d="m362.75 147.01c8.3124 5.5336 36.824 6.0794 48.237 0.12242" />
      <path
         id="path5848"
         sodipodi:rx="14.560237"
         sodipodi:ry="2.125582"
         style="color:#000000;stroke:#424242;stroke-width:.34695;fill:#a4a5a4"
         sodipodi:type="arc"
         d="m401.74 146.01c0 1.1739-6.5188 2.1256-14.56 2.1256-8.0414 0-14.56-0.95166-14.56-2.1256s6.5188-2.1256 14.56-2.1256c8.0414 0 14.56 0.95165 14.56 2.1256z"
         transform="matrix(.86861 0 0 .86078 50.657 20.966)"
         sodipodi:cy="146.01398"
         sodipodi:cx="387.17477" />
      <path
         id="path5848-1"
         sodipodi:rx="14.560237"
         sodipodi:ry="2.125582"
         style="color:#000000;stroke:#424242;stroke-width:.39089;fill:#eae9e8"
         sodipodi:type="arc"
         d="m401.74 146.01c0 1.1739-6.5188 2.1256-14.56 2.1256-8.0414 0-14.56-0.95166-14.56-2.1256s6.5188-2.1256 14.56-2.1256c8.0414 0 14.56 0.95165 14.56 2.1256z"
         transform="matrix(.77424 0 0 .76078 87.195 35.78)"
         sodipodi:cy="146.01398"
         sodipodi:cx="387.17477" />
      <path
         id="path5872"
         style="stroke:#000000;stroke-width:1px;fill:none"
         d="m350.75 198.76h11.145" />
      <path
         id="path5872-5"
         style="stroke:#000000;stroke-width:1px;fill:none"
         d="m353.05 221.05h11.145" />
      <path
         id="path5872-9"
         style="stroke:#000000;stroke-width:1px;fill:none"
         d="m354.36 242.03h11.145" />
      <path
         id="path5872-6"
         style="stroke:#000000;stroke-width:1px;fill:none"
         d="m355.83 262.35h11.145" />
      <path
         id="path5872-5-0"
         style="stroke:#000000;stroke-width:1px;fill:none"
         d="m358.13 284.64h11.145" />
      <path
         id="path5872-9-8"
         style="stroke:#000000;stroke-width:1px;fill:none"
         d="m359.44 305.62h11.145" />
      <path
         id="path5933"
         style="stroke:#000000;stroke-width:1px;fill:none"
         d="m354.56 206.65h4.1755" />
      <path
         id="path5933-4"
         style="stroke:#000000;stroke-width:1px;fill:none"
         d="m355.09 213.69h4.1755" />
      <path
         id="path5933-6"
         style="stroke:#000000;stroke-width:1px;fill:none"
         d="m356.38 228.06h4.1755" />
      <path
         id="path5933-4-5"
         style="stroke:#000000;stroke-width:1px;fill:none"
         d="m356.91 235.1h4.1755" />
      <path
         id="path5933-7"
         style="stroke:#000000;stroke-width:1px;fill:none"
         d="m358.05 249.54h4.1755" />
      <path
         id="path5933-4-7"
         style="stroke:#000000;stroke-width:1px;fill:none"
         d="m358.58 256.58h4.1755" />
      <path
         id="path5933-5"
         style="stroke:#000000;stroke-width:1px;fill:none"
         d="m359.6 270.3h4.1755" />
      <path
         id="path5933-4-0"
         style="stroke:#000000;stroke-width:1px;fill:none"
         d="m360.14 277.33h4.1755" />
      <path
         id="path5933-9"
         style="stroke:#000000;stroke-width:1px;fill:none"
         d="m361.39 292.01h4.1755" />
      <path
         id="path5933-4-57"
         style="stroke:#000000;stroke-width:1px;fill:none"
         d="m361.92 299.05h4.1755" />
      <path
         id="path5933-2"
         style="stroke:#000000;stroke-width:1px;fill:none"
         d="m363.06 314.08h4.1755" />
      <path
         id="path5933-4-1"
         style="stroke:#000000;stroke-width:1px;fill:none"
         d="m363.59 321.12h4.1755" />
      <path
         id="path6117"
         sodipodi:nodetypes="ccc"
         style="filter:url(#filter6119);stroke:url(#linearGradient6270);stroke-width:1px;fill:none"
         d="m430.5 347.1s7.8929 21.64 8.1607 28.836c-3.187 3.8272-23.004 7.7007-23.004 7.7007" />
      <path
         id="path6131"
         sodipodi:nodetypes="cc"
         style="filter:url(#filter6133);stroke:#ffffff;stroke-width:1px;fill:none"
         d="m438.6 388.89c10.989 19.416 17.751 53.464 21.364 99.732" />
      <path
         id="path6157"
         sodipodi:nodetypes="cc"
         style="stroke:#000000;stroke-width:1px;fill:none"
         d="m346.09 186.53c-9.0369-0.52981-18.806-1.4324-27.843-5.129" />
      <path
         id="path6159"
         sodipodi:nodetypes="cc"
         style="stroke:#000000;stroke-width:1px;fill:none"
         d="m389.81 188.97c8.649 0.45011 17.567 0.3631 26.866-0.48848" />
      <path
         id="path6161"
         sodipodi:nodetypes="cc"
         style="stroke:#000000;stroke-width:1px;fill:none"
         d="m431.82 188c7.7343-0.43369 15.469-0.48554 23.203-3.4194" />
      <path
         id="path6163"
         sodipodi:nodetypes="cccc"
         style="stroke:#000000;stroke-width:1px;fill:none"
         d="m450.29 312.29s18.662-11.242 32.237-29.614c7.3258-8.2899 29.091-71.163 20.979-88.507-5.7685-9.5758-38.904-5.405-38.904-5.405" />
      <path
         id="path6163-7"
         sodipodi:nodetypes="cccc"
         style="stroke:#000000;stroke-width:1px;fill:none"
         d="m452.2 294.08s13.311-8.2717 22.993-21.789c5.2252-6.0995 20.749-52.36 14.964-65.121-4.1144-7.0457-27.749-3.9769-27.749-3.9769" />
      <path
         id="path6187"
         sodipodi:nodetypes="ccc"
         style="stroke:#000000;stroke-width:1px;fill:none"
         d="m467.01 193.38s28.784-2.2981 33.174 4.0787c6.9137 19.998-12.929 90.705-42.691 104.14" />
      <path
         id="path6189"
         style="opacity:0.73;stroke-linejoin:round;color:#000000;stroke:#ffffff;stroke-linecap:round;stroke-width:0.3;fill:#eeeeee"
         d="m451.68 308.59c0.27204-0.93618 0.77549-4.5011 1.1188-7.922 0.52161-5.1979 0.99615-6.4636 2.8881-7.7032 3.644-2.3877 12.501-10.663 16.804-15.701 4.8693-5.7009 8.2162-12.653 12.539-26.045 7.0092-21.715 9.1078-41.106 4.9463-45.705-2.2103-2.4424-8.9668-3.8603-18.395-3.8603h-7.5038l0.59783-5.7197c0.3288-3.1458 0.81973-5.9416 1.0909-6.2128 0.27121-0.27122 6.0071-0.51363 12.746-0.53869 13.721-0.051 19.719 1.1879 23.082 4.7671 1.9598 2.0861 2.1518 3.1321 2.1518 11.719 0 8.5836-2.805 28.258-3.8761 27.187-0.24121-0.24122 0.27013-4.6769 1.1363-9.857 1.9655-11.755 1.5537-24.12-0.89336-26.824-0.90772-1.003-3.7156-2.2666-6.2398-2.8079-5.9085-1.2672-27.677-1.3121-27.677-0.0571 0 0.5664 4.3116 0.92718 11.08 0.92718 12.005 0 19.668 1.194 21.451 3.3425 1.9242 2.3185 2.1316 14.283 0.4247 24.491-4.0903 24.462-14.315 49.697-26.179 64.609-4.4773 5.628-7.21 8.1682-14.407 13.392-4.0066 2.9083-0.80469 2.8355 3.5151-0.0799 6.587-4.4455 5.9653-2.7184-1.1434 3.1763-7.9874 6.6235-9.9392 7.7665-9.2579 5.4217v0.00003z" />
      <text
         xml:space="preserve"
         transform="matrix(1.1901913,-1.7828921,1.7828921,1.1901913,209.94759,286.3691)"
         id="text8401"
         style="font-style:normal;font-weight:normal;font-size:40px;line-height:1.25;font-family:sans-serif;white-space:pre;shape-inside:url(#rect8403);fill:#ff0000;fill-opacity:1;stroke:none"><tspan
           x="14.767578"
           y="76.951172"
           id="tspan27450">404</tspan></text>
    </g>
  </g>
  <metadata
     id="metadata103">
    <rdf:RDF>
      <cc:Work>
        <dc:format>image/svg+xml</dc:format>
        <dc:type
           rdf:resource="http://purl.org/dc/dcmitype/StillImage" />
        <cc:license
           rdf:resource="http://creativecommons.org/licenses/publicdomain/" />
        <dc:publisher>
          <cc:Agent
             rdf:about="http://openclipart.org/">
            <dc:title>Openclipart</dc:title>
          </cc:Agent>
        </dc:publisher>
        <dc:date>2010-05-19T14:47:03</dc:date>
        <dc:description>An old-style blender. Drawn in Inkscape.</dc:description>
        <dc:source>https://openclipart.org/detail/61189/blender-by-j_alves</dc:source>
        <dc:creator>
          <cc:Agent>
            <dc:title>J_Alves</dc:title>
          </cc:Agent>
        </dc:creator>
        <dc:subject>
          <rdf:Bag>
            <rdf:li>appliance</rdf:li>
            <rdf:li>blender</rdf:li>
            <rdf:li>cook</rdf:li>
            <rdf:li>cooking</rdf:li>
            <rdf:li>kitchen</rdf:li>
          </rdf:Bag>
        </dc:subject>
      </cc:Work>
      <cc:License
         rdf:about="http://creativecommons.org/licenses/publicdomain/">
        <cc:permits
           rdf:resource="http://creativecommons.org/ns#Reproduction" />
        <cc:permits
           rdf:resource="http://creativecommons.org/ns#Distribution" />
        <cc:permits
           rdf:resource="http://creativecommons.org/ns#DerivativeWorks" />
      </cc:License>
    </rdf:RDF>
  </metadata>
</svg>
